<svg width="495" height="195" viewBox="0 0 495 195" fill="none" xmlns="http://www.w3.org/2000/svg">
  <style>
    .header { font: 600 18px 'Segoe UI', Ubuntu, Sans-Serif; fill: #E6EDF3; }
    .stat  { font: 600 14px 'Segoe UI', Ubuntu, Mono, monospace, Sans-Serif; fill: #E6EDF3; }
    .bold  { font: 800 14px 'Segoe UI', Ubuntu, Mono, monospace, Sans-Serif; fill: #E6EDF3; }
    .icon  { fill: #8B949E; }
    .rank  { font: 800 24px 'Segoe UI', Ubuntu, Mono, monospace, Sans-Serif; fill: #E6EDF3; }
    .rank-label { font: 700 8px 'Segoe UI', Ubuntu, Mono, monospace, Sans-Serif; fill: #8B949E; }
    .sub   { font: 400 12px 'Segoe UI', Ubuntu, Mono, monospace, Sans-Serif; fill: #8B949E; }
  </style>

  <!-- Card background -->
  <rect x="0.5" y="0.5" rx="4.5" height="99%" stroke="#30363D" width="494" fill="#0D1117" stroke-opacity="1"/>

  <!-- Title -->
  <text x="25" y="35" class="header">ajw4sk&apos;s GitHub Stats</text>

  <!-- Left column: icon + stat rows -->
  <!-- Stars -->
  <g transform="translate(25, 55)">
    <svg x="0" y="0" class="icon" viewBox="0 0 16 16" version="1.1" width="16" height="16">
      <path d="M8 .25a.75.75 0 0 1 .673.418l1.882 3.815 4.21.612a.75.75 0 0 1 .416 1.279l-3.046 2.97.719 4.192a.751.751 0 0 1-1.088.791L8 12.347l-3.766 1.98a.75.75 0 0 1-1.088-.79l.72-4.194L.818 6.374a.75.75 0 0 1 .416-1.28l4.21-.611L7.327.668A.75.75 0 0 1 8 .25Z"/>
    </svg>
    <text x="22" y="13" class="stat">Total Stars Earned:</text>
    <text x="210" y="13" class="bold">0</text>
  </g>

  <!-- Commits -->
  <g transform="translate(25, 85)">
    <svg x="0" y="0" class="icon" viewBox="0 0 16 16" version="1.1" width="16" height="16">
      <path d="M11.93 8.5a4.002 4.002 0 0 1-7.86 0H.75a.75.75 0 0 1 0-1.5h3.32a4.002 4.002 0 0 1 7.86 0h3.32a.75.75 0 0 1 0 1.5Zm-1.43-.75a2.5 2.5 0 1 0-5 0 2.5 2.5 0 0 0 5 0Z"/>
    </svg>
    <text x="22" y="13" class="stat">Total Commits (2026):</text>
    <text x="210" y="13" class="bold">3</text>
  </g>

  <!-- PRs -->
  <g transform="translate(25, 115)">
    <svg x="0" y="0" class="icon" viewBox="0 0 16 16" version="1.1" width="16" height="16">
      <path d="M1.5 3.25a2.25 2.25 0 1 1 3 2.122v5.256a2.251 2.251 0 1 1-1.5 0V5.372A2.25 2.25 0 0 1 1.5 3.25Zm5.677-.177L9.573.677A.25.25 0 0 1 10 .854V2.5h1A2.5 2.5 0 0 1 13.5 5v5.628a2.251 2.251 0 1 1-1.5 0V5a1 1 0 0 0-1-1h-1v1.646a.25.25 0 0 1-.427.177L7.177 3.427a.25.25 0 0 1 0-.354ZM3.75 2.5a.75.75 0 1 0 0 1.5.75.75 0 0 0 0-1.5Zm0 9.5a.75.75 0 1 0 0 1.5.75.75 0 0 0 0-1.5Zm8.25.75a.75.75 0 1 0 1.5 0 .75.75 0 0 0-1.5 0Z"/>
    </svg>
    <text x="22" y="13" class="stat">Total PRs:</text>
    <text x="210" y="13" class="bold">0</text>
  </g>

  <!-- Issues -->
  <g transform="translate(25, 145)">
    <svg x="0" y="0" class="icon" viewBox="0 0 16 16" version="1.1" width="16" height="16">
      <path d="M8 9.5a1.5 1.5 0 1 0 0-3 1.5 1.5 0 0 0 0 3Z"/>
      <path d="M8 0a8 8 0 1 1 0 16A8 8 0 0 1 8 0ZM1.5 8a6.5 6.5 0 1 0 13 0 6.5 6.5 0 0 0-13 0Z"/>
    </svg>
    <text x="22" y="13" class="stat">Total Issues:</text>
    <text x="210" y="13" class="bold">2</text>
  </g>

  <!-- Contributed to -->
  <g transform="translate(25, 170)">
    <svg x="0" y="0" class="icon" viewBox="0 0 16 16" version="1.1" width="16" height="16">
      <path d="M2 2.5A2.5 2.5 0 0 1 4.5 0h8.75a.75.75 0 0 1 .75.75v12.5a.75.75 0 0 1-.75.75h-2.5a.75.75 0 0 1 0-1.5h1.75v-2h-8a1 1 0 0 0-.714 1.7.75.75 0 1 1-1.072 1.05A2.495 2.495 0 0 1 2 11.5Zm10.5-1h-8a1 1 0 0 0-1 1v6.708A2.486 2.486 0 0 1 4.5 9h8Z"/>
    </svg>
    <text x="22" y="13" class="stat">Contributed to (last year):</text>
    <text x="210" y="13" class="bold">1</text>
  </g>

  <!-- Rank badge (right side) -->
  <g transform="translate(340, 55)">
    <circle cx="60" cy="60" r="50" stroke="#30363D" stroke-width="6" fill="none"/>
    <circle cx="60" cy="60" r="50" stroke="#1F6FEB" stroke-width="6" fill="none"
            stroke-dasharray="15 300" stroke-linecap="round"
            transform="rotate(-90 60 60)"/>
    <text x="60" y="53" text-anchor="middle" class="rank">C+</text>
    <text x="60" y="70" text-anchor="middle" class="rank-label">GitHub Rank</text>
  </g>
</svg>
